<mxfile host="app.diagrams.net" modified="2021-10-29T01:53:41.663Z" agent="5.0 (Windows NT 10.0; Win64; x64) AppleWebKit/537.36 (KHTML, like Gecko) Chrome/95.0.4638.54 Safari/537.36" etag="GQdrEHBgQ_8t6EVMWysU" version="14.9.2" type="github">
  <diagram id="chNzZVGyo9SPdtNRLmo0" name="Page-1">
    <mxGraphModel dx="2522" dy="826" grid="1" gridSize="10" guides="1" tooltips="1" connect="1" arrows="1" fold="1" page="1" pageScale="1" pageWidth="1100" pageHeight="850" math="0" shadow="0">
      <root>
        <mxCell id="0" />
        <mxCell id="1" parent="0" />
        <mxCell id="sQp2Zh3F2BZOGlov7ECM-1" value="" style="endArrow=none;dashed=1;html=1;strokeWidth=5;dashPattern=1 4;strokeColor=#D9D9D9;" edge="1" parent="1" target="sQp2Zh3F2BZOGlov7ECM-48">
          <mxGeometry width="50" height="50" relative="1" as="geometry">
            <mxPoint x="-220" y="520" as="sourcePoint" />
            <mxPoint x="1020" y="520" as="targetPoint" />
          </mxGeometry>
        </mxCell>
        <mxCell id="sQp2Zh3F2BZOGlov7ECM-2" value="" style="endArrow=none;dashed=1;html=1;strokeWidth=5;dashPattern=1 4;strokeColor=#D9D9D9;" edge="1" parent="1" source="sQp2Zh3F2BZOGlov7ECM-59">
          <mxGeometry width="50" height="50" relative="1" as="geometry">
            <mxPoint x="-220" y="754.5" as="sourcePoint" />
            <mxPoint x="1020" y="754.5" as="targetPoint" />
          </mxGeometry>
        </mxCell>
        <mxCell id="sQp2Zh3F2BZOGlov7ECM-3" value="" style="endArrow=none;dashed=1;html=1;strokeWidth=5;dashPattern=1 4;strokeColor=#D9D9D9;" edge="1" parent="1" source="sQp2Zh3F2BZOGlov7ECM-51">
          <mxGeometry width="50" height="50" relative="1" as="geometry">
            <mxPoint x="-230" y="624.5" as="sourcePoint" />
            <mxPoint x="1010" y="624.5" as="targetPoint" />
          </mxGeometry>
        </mxCell>
        <mxCell id="sQp2Zh3F2BZOGlov7ECM-6" value="" style="endArrow=none;dashed=1;html=1;strokeWidth=5;dashPattern=1 4;strokeColor=#D9D9D9;startArrow=none;" edge="1" parent="1" source="sQp2Zh3F2BZOGlov7ECM-44">
          <mxGeometry width="50" height="50" relative="1" as="geometry">
            <mxPoint x="-220" y="520" as="sourcePoint" />
            <mxPoint x="1020" y="520" as="targetPoint" />
          </mxGeometry>
        </mxCell>
        <mxCell id="sQp2Zh3F2BZOGlov7ECM-7" value="MASTER" style="rounded=0;whiteSpace=wrap;html=1;strokeWidth=5;fillColor=#dae8fc;strokeColor=#330000;" vertex="1" parent="1">
          <mxGeometry x="-235" y="50" width="120" height="60" as="geometry" />
        </mxCell>
        <mxCell id="sQp2Zh3F2BZOGlov7ECM-8" value="REALSE" style="rounded=0;whiteSpace=wrap;html=1;strokeWidth=5;fillColor=#67AB9F;" vertex="1" parent="1">
          <mxGeometry x="-25" y="50" width="120" height="60" as="geometry" />
        </mxCell>
        <mxCell id="sQp2Zh3F2BZOGlov7ECM-9" value="FEATURE/A&lt;br&gt;" style="rounded=0;whiteSpace=wrap;html=1;strokeWidth=5;fillColor=#e3c800;strokeColor=#330000;fontColor=#ffffff;" vertex="1" parent="1">
          <mxGeometry x="200" y="50" width="120" height="60" as="geometry" />
        </mxCell>
        <mxCell id="sQp2Zh3F2BZOGlov7ECM-10" value="HOTFIX" style="rounded=0;whiteSpace=wrap;html=1;strokeWidth=5;fillColor=#fa6800;strokeColor=#330000;fontColor=#ffffff;" vertex="1" parent="1">
          <mxGeometry x="877.5" y="50" width="120" height="60" as="geometry" />
        </mxCell>
        <mxCell id="sQp2Zh3F2BZOGlov7ECM-11" style="edgeStyle=orthogonalEdgeStyle;rounded=0;orthogonalLoop=1;jettySize=auto;html=1;strokeWidth=5;curved=1;endArrow=none;endFill=0;" edge="1" parent="1" source="sQp2Zh3F2BZOGlov7ECM-13">
          <mxGeometry relative="1" as="geometry">
            <mxPoint x="-75" y="540" as="targetPoint" />
          </mxGeometry>
        </mxCell>
        <mxCell id="sQp2Zh3F2BZOGlov7ECM-12" style="edgeStyle=orthogonalEdgeStyle;curved=1;rounded=0;orthogonalLoop=1;jettySize=auto;html=1;entryX=0;entryY=0.5;entryDx=0;entryDy=0;endArrow=none;endFill=0;strokeWidth=5;" edge="1" parent="1" source="sQp2Zh3F2BZOGlov7ECM-13" target="sQp2Zh3F2BZOGlov7ECM-20">
          <mxGeometry relative="1" as="geometry" />
        </mxCell>
        <mxCell id="sQp2Zh3F2BZOGlov7ECM-13" value="" style="ellipse;whiteSpace=wrap;html=1;aspect=fixed;strokeColor=#330000;fillColor=#DAE8FC;strokeWidth=5;" vertex="1" parent="1">
          <mxGeometry x="-200" y="250" width="50" height="50" as="geometry" />
        </mxCell>
        <mxCell id="sQp2Zh3F2BZOGlov7ECM-14" style="edgeStyle=orthogonalEdgeStyle;curved=1;rounded=0;orthogonalLoop=1;jettySize=auto;html=1;entryX=0;entryY=0.5;entryDx=0;entryDy=0;endArrow=none;endFill=0;strokeWidth=5;" edge="1" parent="1" source="sQp2Zh3F2BZOGlov7ECM-20" target="sQp2Zh3F2BZOGlov7ECM-35">
          <mxGeometry relative="1" as="geometry" />
        </mxCell>
        <mxCell id="sQp2Zh3F2BZOGlov7ECM-15" style="edgeStyle=orthogonalEdgeStyle;curved=1;rounded=0;orthogonalLoop=1;jettySize=auto;html=1;entryX=0;entryY=0.5;entryDx=0;entryDy=0;endArrow=none;endFill=0;strokeWidth=5;" edge="1" parent="1" source="sQp2Zh3F2BZOGlov7ECM-20" target="sQp2Zh3F2BZOGlov7ECM-57">
          <mxGeometry relative="1" as="geometry" />
        </mxCell>
        <mxCell id="sQp2Zh3F2BZOGlov7ECM-16" value="bug pull" style="text;html=1;align=center;verticalAlign=middle;resizable=0;points=[];labelBackgroundColor=#ffffff;" vertex="1" connectable="0" parent="sQp2Zh3F2BZOGlov7ECM-15">
          <mxGeometry x="0.4381" y="13" relative="1" as="geometry">
            <mxPoint as="offset" />
          </mxGeometry>
        </mxCell>
        <mxCell id="sQp2Zh3F2BZOGlov7ECM-18" style="edgeStyle=orthogonalEdgeStyle;curved=1;rounded=0;orthogonalLoop=1;jettySize=auto;html=1;entryX=0.02;entryY=0.29;entryDx=0;entryDy=0;entryPerimeter=0;endArrow=none;endFill=0;strokeWidth=5;" edge="1" parent="1" source="sQp2Zh3F2BZOGlov7ECM-20" target="sQp2Zh3F2BZOGlov7ECM-59">
          <mxGeometry relative="1" as="geometry">
            <Array as="points">
              <mxPoint x="400" y="745" />
            </Array>
          </mxGeometry>
        </mxCell>
        <mxCell id="sQp2Zh3F2BZOGlov7ECM-19" value="继续开发,拉出FEATURE/C" style="text;html=1;align=center;verticalAlign=middle;resizable=0;points=[];labelBackgroundColor=#ffffff;" vertex="1" connectable="0" parent="sQp2Zh3F2BZOGlov7ECM-18">
          <mxGeometry x="-0.8119" relative="1" as="geometry">
            <mxPoint y="127" as="offset" />
          </mxGeometry>
        </mxCell>
        <mxCell id="sQp2Zh3F2BZOGlov7ECM-20" value="" style="ellipse;whiteSpace=wrap;html=1;aspect=fixed;strokeColor=#330000;fillColor=#DAE8FC;strokeWidth=5;" vertex="1" parent="1">
          <mxGeometry x="350" y="250" width="50" height="50" as="geometry" />
        </mxCell>
        <mxCell id="sQp2Zh3F2BZOGlov7ECM-21" value="" style="endArrow=classic;html=1;strokeWidth=5;" edge="1" parent="1">
          <mxGeometry width="50" height="50" relative="1" as="geometry">
            <mxPoint x="-175.5" y="170" as="sourcePoint" />
            <mxPoint x="-175" y="240" as="targetPoint" />
          </mxGeometry>
        </mxCell>
        <mxCell id="sQp2Zh3F2BZOGlov7ECM-22" style="edgeStyle=orthogonalEdgeStyle;rounded=0;orthogonalLoop=1;jettySize=auto;html=1;entryX=0.5;entryY=0;entryDx=0;entryDy=0;curved=1;endArrow=none;endFill=0;strokeWidth=5;" edge="1" parent="1" target="sQp2Zh3F2BZOGlov7ECM-51">
          <mxGeometry relative="1" as="geometry">
            <Array as="points">
              <mxPoint x="-75" y="570" />
              <mxPoint x="20" y="570" />
              <mxPoint x="20" y="600" />
            </Array>
            <mxPoint x="-75" y="541" as="sourcePoint" />
          </mxGeometry>
        </mxCell>
        <mxCell id="sQp2Zh3F2BZOGlov7ECM-23" value="开发Feature B" style="text;html=1;align=center;verticalAlign=middle;resizable=0;points=[];labelBackgroundColor=#ffffff;" vertex="1" connectable="0" parent="sQp2Zh3F2BZOGlov7ECM-22">
          <mxGeometry x="0.4583" y="-4" relative="1" as="geometry">
            <mxPoint as="offset" />
          </mxGeometry>
        </mxCell>
        <mxCell id="sQp2Zh3F2BZOGlov7ECM-24" style="edgeStyle=orthogonalEdgeStyle;rounded=0;orthogonalLoop=1;jettySize=auto;html=1;entryX=0;entryY=0.5;entryDx=0;entryDy=0;curved=1;strokeWidth=5;endArrow=none;endFill=0;" edge="1" parent="1" target="sQp2Zh3F2BZOGlov7ECM-33">
          <mxGeometry relative="1" as="geometry">
            <Array as="points">
              <mxPoint x="-75" y="755" />
            </Array>
            <mxPoint x="-75" y="541" as="sourcePoint" />
          </mxGeometry>
        </mxCell>
        <mxCell id="sQp2Zh3F2BZOGlov7ECM-25" value="开发 Feature A" style="text;html=1;align=center;verticalAlign=middle;resizable=0;points=[];labelBackgroundColor=#ffffff;" vertex="1" connectable="0" parent="sQp2Zh3F2BZOGlov7ECM-24">
          <mxGeometry x="-0.1237" y="7" relative="1" as="geometry">
            <mxPoint as="offset" />
          </mxGeometry>
        </mxCell>
        <mxCell id="sQp2Zh3F2BZOGlov7ECM-27" value="上周二" style="rounded=0;whiteSpace=wrap;html=1;strokeWidth=5;fillColor=#dae8fc;strokeColor=#330000;" vertex="1" parent="1">
          <mxGeometry x="-202.5" y="130" width="55" height="40" as="geometry" />
        </mxCell>
        <mxCell id="sQp2Zh3F2BZOGlov7ECM-28" value="周四" style="rounded=0;whiteSpace=wrap;html=1;strokeWidth=5;fillColor=#dae8fc;strokeColor=#330000;" vertex="1" parent="1">
          <mxGeometry x="812.5" y="130" width="65" height="40" as="geometry" />
        </mxCell>
        <mxCell id="sQp2Zh3F2BZOGlov7ECM-29" value="" style="endArrow=classic;html=1;strokeWidth=5;" edge="1" parent="1">
          <mxGeometry width="50" height="50" relative="1" as="geometry">
            <mxPoint x="844.5" y="170" as="sourcePoint" />
            <mxPoint x="845" y="240" as="targetPoint" />
          </mxGeometry>
        </mxCell>
        <mxCell id="sQp2Zh3F2BZOGlov7ECM-30" style="edgeStyle=orthogonalEdgeStyle;curved=1;rounded=0;orthogonalLoop=1;jettySize=auto;html=1;entryX=0;entryY=0.5;entryDx=0;entryDy=0;endArrow=none;endFill=0;strokeWidth=5;" edge="1" parent="1" source="sQp2Zh3F2BZOGlov7ECM-51" target="sQp2Zh3F2BZOGlov7ECM-48">
          <mxGeometry relative="1" as="geometry" />
        </mxCell>
        <mxCell id="sQp2Zh3F2BZOGlov7ECM-31" value="提前一天准备Stable版本" style="text;html=1;align=center;verticalAlign=middle;resizable=0;points=[];labelBackgroundColor=#ffffff;" vertex="1" connectable="0" parent="sQp2Zh3F2BZOGlov7ECM-30">
          <mxGeometry x="0.0857" relative="1" as="geometry">
            <mxPoint x="-5" y="-14" as="offset" />
          </mxGeometry>
        </mxCell>
        <mxCell id="sQp2Zh3F2BZOGlov7ECM-32" value="FEATURE/B" style="rounded=0;whiteSpace=wrap;html=1;strokeWidth=5;fillColor=#FF00FF;strokeColor=#330000;gradientColor=none;" vertex="1" parent="1">
          <mxGeometry x="420" y="50" width="120" height="60" as="geometry" />
        </mxCell>
        <mxCell id="sQp2Zh3F2BZOGlov7ECM-33" value="B" style="ellipse;whiteSpace=wrap;html=1;aspect=fixed;strokeColor=#330000;fillColor=#E3C800;strokeWidth=5;" vertex="1" parent="1">
          <mxGeometry y="730" width="50" height="50" as="geometry" />
        </mxCell>
        <mxCell id="sQp2Zh3F2BZOGlov7ECM-35" value="" style="ellipse;whiteSpace=wrap;html=1;aspect=fixed;strokeColor=#330000;fillColor=#DAE8FC;strokeWidth=5;" vertex="1" parent="1">
          <mxGeometry x="820" y="250" width="50" height="50" as="geometry" />
        </mxCell>
        <mxCell id="sQp2Zh3F2BZOGlov7ECM-36" style="edgeStyle=orthogonalEdgeStyle;curved=1;rounded=0;orthogonalLoop=1;jettySize=auto;html=1;entryX=0.5;entryY=1;entryDx=0;entryDy=0;endArrow=none;endFill=0;strokeWidth=5;" edge="1" parent="1" source="sQp2Zh3F2BZOGlov7ECM-39" target="sQp2Zh3F2BZOGlov7ECM-63">
          <mxGeometry relative="1" as="geometry" />
        </mxCell>
        <mxCell id="sQp2Zh3F2BZOGlov7ECM-37" value="周二" style="rounded=0;whiteSpace=wrap;html=1;strokeWidth=5;fillColor=#dae8fc;strokeColor=#330000;" vertex="1" parent="1">
          <mxGeometry x="347.5" y="130" width="55" height="40" as="geometry" />
        </mxCell>
        <mxCell id="sQp2Zh3F2BZOGlov7ECM-38" value="" style="endArrow=classic;html=1;strokeWidth=5;" edge="1" parent="1">
          <mxGeometry width="50" height="50" relative="1" as="geometry">
            <mxPoint x="374.5" y="170" as="sourcePoint" />
            <mxPoint x="375" y="240" as="targetPoint" />
          </mxGeometry>
        </mxCell>
        <mxCell id="sQp2Zh3F2BZOGlov7ECM-39" value="修复合入master 打tag" style="text;html=1;align=center;verticalAlign=middle;resizable=0;points=[];autosize=1;" vertex="1" parent="1">
          <mxGeometry x="560" y="310" width="130" height="20" as="geometry" />
        </mxCell>
        <mxCell id="sQp2Zh3F2BZOGlov7ECM-40" style="edgeStyle=orthogonalEdgeStyle;curved=1;rounded=0;orthogonalLoop=1;jettySize=auto;html=1;endArrow=none;endFill=0;strokeWidth=5;" edge="1" parent="1" source="sQp2Zh3F2BZOGlov7ECM-57">
          <mxGeometry relative="1" as="geometry">
            <mxPoint x="660" y="365" as="sourcePoint" />
            <mxPoint x="630" y="330" as="targetPoint" />
            <Array as="points">
              <mxPoint x="610" y="365" />
              <mxPoint x="610" y="330" />
            </Array>
          </mxGeometry>
        </mxCell>
        <mxCell id="sQp2Zh3F2BZOGlov7ECM-41" style="edgeStyle=orthogonalEdgeStyle;rounded=0;orthogonalLoop=1;jettySize=auto;html=1;exitX=0.5;exitY=1;exitDx=0;exitDy=0;entryX=0.5;entryY=0;entryDx=0;entryDy=0;endArrow=none;endFill=0;strokeWidth=5;curved=1;" edge="1" parent="1" source="sQp2Zh3F2BZOGlov7ECM-35" target="sQp2Zh3F2BZOGlov7ECM-44">
          <mxGeometry relative="1" as="geometry">
            <mxPoint x="845" y="460" as="sourcePoint" />
          </mxGeometry>
        </mxCell>
        <mxCell id="sQp2Zh3F2BZOGlov7ECM-43" style="edgeStyle=orthogonalEdgeStyle;rounded=0;orthogonalLoop=1;jettySize=auto;html=1;endArrow=none;endFill=0;strokeWidth=5;exitX=0.5;exitY=1;exitDx=0;exitDy=0;entryX=1;entryY=0.5;entryDx=0;entryDy=0;curved=1;" edge="1" parent="1" source="sQp2Zh3F2BZOGlov7ECM-44" target="sQp2Zh3F2BZOGlov7ECM-59">
          <mxGeometry relative="1" as="geometry">
            <mxPoint x="845" y="730" as="targetPoint" />
          </mxGeometry>
        </mxCell>
        <mxCell id="sQp2Zh3F2BZOGlov7ECM-46" style="edgeStyle=orthogonalEdgeStyle;curved=1;rounded=0;orthogonalLoop=1;jettySize=auto;html=1;entryX=0;entryY=0.5;entryDx=0;entryDy=0;endArrow=none;endFill=0;strokeWidth=5;" edge="1" parent="1" source="sQp2Zh3F2BZOGlov7ECM-48" target="sQp2Zh3F2BZOGlov7ECM-20">
          <mxGeometry relative="1" as="geometry" />
        </mxCell>
        <mxCell id="sQp2Zh3F2BZOGlov7ECM-47" value="合入master打包发布" style="text;html=1;align=center;verticalAlign=middle;resizable=0;points=[];labelBackgroundColor=#ffffff;" vertex="1" connectable="0" parent="sQp2Zh3F2BZOGlov7ECM-46">
          <mxGeometry x="-0.0764" y="1" relative="1" as="geometry">
            <mxPoint x="-4" y="-48" as="offset" />
          </mxGeometry>
        </mxCell>
        <mxCell id="sQp2Zh3F2BZOGlov7ECM-48" value="" style="ellipse;whiteSpace=wrap;html=1;aspect=fixed;strokeColor=#330000;fillColor=#67AB9F;strokeWidth=5;" vertex="1" parent="1">
          <mxGeometry x="150" y="495" width="50" height="50" as="geometry" />
        </mxCell>
        <mxCell id="sQp2Zh3F2BZOGlov7ECM-51" value="A" style="ellipse;whiteSpace=wrap;html=1;aspect=fixed;strokeColor=#330000;fillColor=#E3C800;strokeWidth=5;" vertex="1" parent="1">
          <mxGeometry y="600" width="50" height="50" as="geometry" />
        </mxCell>
        <mxCell id="sQp2Zh3F2BZOGlov7ECM-52" value="" style="endArrow=none;dashed=1;html=1;strokeWidth=5;dashPattern=1 4;strokeColor=#D9D9D9;" edge="1" parent="1" target="sQp2Zh3F2BZOGlov7ECM-51">
          <mxGeometry width="50" height="50" relative="1" as="geometry">
            <mxPoint x="-230" y="624.5" as="sourcePoint" />
            <mxPoint x="1010" y="624.5" as="targetPoint" />
          </mxGeometry>
        </mxCell>
        <mxCell id="sQp2Zh3F2BZOGlov7ECM-56" value="提前一天准备Stable版本" style="text;html=1;align=center;verticalAlign=middle;resizable=0;points=[];labelBackgroundColor=#ffffff;" vertex="1" connectable="0" parent="1">
          <mxGeometry x="730" y="520" as="geometry">
            <mxPoint x="-6" y="-3" as="offset" />
          </mxGeometry>
        </mxCell>
        <mxCell id="sQp2Zh3F2BZOGlov7ECM-57" value="" style="ellipse;whiteSpace=wrap;html=1;aspect=fixed;strokeColor=#330000;fillColor=#FA6800;strokeWidth=5;" vertex="1" parent="1">
          <mxGeometry x="510" y="340" width="50" height="50" as="geometry" />
        </mxCell>
        <mxCell id="sQp2Zh3F2BZOGlov7ECM-59" value="B" style="ellipse;whiteSpace=wrap;html=1;aspect=fixed;strokeColor=#330000;fillColor=#E3C800;strokeWidth=5;" vertex="1" parent="1">
          <mxGeometry x="440" y="730" width="50" height="50" as="geometry" />
        </mxCell>
        <mxCell id="sQp2Zh3F2BZOGlov7ECM-60" value="" style="endArrow=none;dashed=1;html=1;strokeWidth=5;dashPattern=1 4;strokeColor=#D9D9D9;" edge="1" parent="1" target="sQp2Zh3F2BZOGlov7ECM-59">
          <mxGeometry width="50" height="50" relative="1" as="geometry">
            <mxPoint x="-220" y="754.5" as="sourcePoint" />
            <mxPoint x="1020" y="754.5" as="targetPoint" />
          </mxGeometry>
        </mxCell>
        <mxCell id="sQp2Zh3F2BZOGlov7ECM-62" value="FEATURE/C" style="rounded=0;whiteSpace=wrap;html=1;strokeWidth=5;strokeColor=#330000;gradientColor=none;fillColor=#D5E8D4;" vertex="1" parent="1">
          <mxGeometry x="650" y="50" width="120" height="60" as="geometry" />
        </mxCell>
        <mxCell id="sQp2Zh3F2BZOGlov7ECM-63" value="" style="ellipse;whiteSpace=wrap;html=1;aspect=fixed;strokeColor=#330000;fillColor=#DAE8FC;strokeWidth=5;" vertex="1" parent="1">
          <mxGeometry x="597.5" y="250" width="50" height="50" as="geometry" />
        </mxCell>
        <mxCell id="sQp2Zh3F2BZOGlov7ECM-64" value="周三" style="rounded=0;whiteSpace=wrap;html=1;strokeWidth=5;fillColor=#dae8fc;strokeColor=#330000;" vertex="1" parent="1">
          <mxGeometry x="590" y="130" width="65" height="40" as="geometry" />
        </mxCell>
        <mxCell id="sQp2Zh3F2BZOGlov7ECM-65" value="" style="endArrow=classic;html=1;strokeWidth=5;" edge="1" parent="1">
          <mxGeometry width="50" height="50" relative="1" as="geometry">
            <mxPoint x="622" y="170" as="sourcePoint" />
            <mxPoint x="622.5" y="240" as="targetPoint" />
          </mxGeometry>
        </mxCell>
        <mxCell id="sQp2Zh3F2BZOGlov7ECM-67" value="合入master打包发布" style="text;html=1;align=center;verticalAlign=middle;resizable=0;points=[];labelBackgroundColor=#ffffff;" vertex="1" connectable="0" parent="1">
          <mxGeometry x="812.5" y="380" as="geometry">
            <mxPoint x="-6" y="-3" as="offset" />
          </mxGeometry>
        </mxCell>
        <mxCell id="sQp2Zh3F2BZOGlov7ECM-44" value="" style="ellipse;whiteSpace=wrap;html=1;aspect=fixed;strokeColor=#330000;fillColor=#67AB9F;strokeWidth=5;" vertex="1" parent="1">
          <mxGeometry x="605" y="495" width="50" height="50" as="geometry" />
        </mxCell>
        <mxCell id="sQp2Zh3F2BZOGlov7ECM-68" value="" style="endArrow=none;dashed=1;html=1;strokeWidth=5;dashPattern=1 4;strokeColor=#D9D9D9;" edge="1" parent="1" source="sQp2Zh3F2BZOGlov7ECM-48" target="sQp2Zh3F2BZOGlov7ECM-44">
          <mxGeometry width="50" height="50" relative="1" as="geometry">
            <mxPoint x="249.9996835628258" y="516.1257845713853" as="sourcePoint" />
            <mxPoint x="1020" y="520" as="targetPoint" />
          </mxGeometry>
        </mxCell>
        <mxCell id="sQp2Zh3F2BZOGlov7ECM-69" value="" style="ellipse;whiteSpace=wrap;html=1;aspect=fixed;strokeColor=#330000;fillColor=#DAE8FC;strokeWidth=5;" vertex="1" parent="1">
          <mxGeometry x="147.5" y="250" width="50" height="50" as="geometry" />
        </mxCell>
        <mxCell id="sQp2Zh3F2BZOGlov7ECM-70" value="周二" style="rounded=0;whiteSpace=wrap;html=1;strokeWidth=5;fillColor=#dae8fc;strokeColor=#330000;" vertex="1" parent="1">
          <mxGeometry x="145" y="130" width="55" height="40" as="geometry" />
        </mxCell>
        <mxCell id="sQp2Zh3F2BZOGlov7ECM-71" value="" style="endArrow=classic;html=1;strokeWidth=5;" edge="1" parent="1">
          <mxGeometry width="50" height="50" relative="1" as="geometry">
            <mxPoint x="172" y="170" as="sourcePoint" />
            <mxPoint x="172.5" y="240" as="targetPoint" />
          </mxGeometry>
        </mxCell>
      </root>
    </mxGraphModel>
  </diagram>
</mxfile>
